<svg xmlns="http://www.w3.org/2000/svg" width="191.908" height="44.435" viewBox="0 0 191.908 44.435"><path d="M626.252,91.822H611l3.122-6.245h12.129a2.522,2.522,0,0,0,0-5.044h-6.485a8.767,8.767,0,1,1,0-17.534H631.9l3.122,6.245H619.767a2.522,2.522,0,1,0,0,5.044h6.485a8.767,8.767,0,0,1,0,17.534Z" transform="translate(-464.247 -47.868)" fill="#181939"/><path d="M400.252,91.822H385l3.122-6.245h12.129a2.522,2.522,0,0,0,0-5.044h-6.485a8.767,8.767,0,1,1,0-17.534H405.9l3.122,6.245H393.767a2.522,2.522,0,0,0,0,5.044h6.485a8.767,8.767,0,0,1,0,17.534Z" transform="translate(-292.529 -47.868)" fill="#181939"/><path d="M270.152,89.7a14.171,14.171,0,0,1-4.859-3.065A13.724,13.724,0,0,1,262.12,81.9a15.992,15.992,0,0,1-1.122-6,14.308,14.308,0,0,1,1.22-5.8,14.911,14.911,0,0,1,3.3-4.732A15.417,15.417,0,0,1,276.267,61a15.8,15.8,0,0,1,6.021,1.153A15.048,15.048,0,0,1,287,65.219l.9.86-4.768,4.7-.874-.934a7.972,7.972,0,0,0-5.993-2.532,8.166,8.166,0,0,0-5.949,2.491,8.954,8.954,0,0,0,0,12.177,8.258,8.258,0,0,0,11.551.281h0c.135-.127.264-.259.392-.394l.874-.934,4.681,4.609-.874.862a15.213,15.213,0,0,1-10.671,4.379,17.12,17.12,0,0,1-6.115-1.078Z" transform="translate(-198.31 -46.348)" fill="#181939"/><path d="M131.948,89.689a13.638,13.638,0,0,1-7.852-7.808,16.256,16.256,0,0,1-1.1-6,14.635,14.635,0,0,1,1.2-5.8,15.132,15.132,0,0,1,7.969-7.926,14.692,14.692,0,0,1,5.764-1.172c8.74,0,14.848,6.13,14.848,14.9a14.517,14.517,0,0,1-1.2,5.764,15.228,15.228,0,0,1-7.926,7.938,14.44,14.44,0,0,1-5.726,1.189,16.391,16.391,0,0,1-5.978-1.078Zm-.214-19.95a8.81,8.81,0,0,0,0,12.273,8.961,8.961,0,0,0,9.639,1.837,8.215,8.215,0,0,0,2.712-1.833,8.909,8.909,0,0,0,0-12.283,8.215,8.215,0,0,0-2.712-1.833,8.961,8.961,0,0,0-9.639,1.837Z" transform="translate(-93.455 -46.333)" fill="#181939"/><path d="M20.416,91.822,14.68,80.506l-7.955.026V91.822H0V63H17.053a9.668,9.668,0,0,1,3.653.689,8.546,8.546,0,0,1,2.861,1.9,8.673,8.673,0,0,1,2.484,6.166A8.776,8.776,0,0,1,24.5,76.774a8.57,8.57,0,0,1-3.041,2.7l6.163,12.343ZM6.725,75.009H16.2c1.559,0,2.536-1.1,2.536-2.882s-.961-2.882-2.529-2.882H6.725Z" transform="translate(0 -47.868)" fill="#181939"/><path d="M732.169,17.534h6.965L730.367,0H721l7.566,15.132H721.6l8.767,17.534h9.367Z" transform="translate(-547.826)" fill="#3c9eff"/><path d="M519.822,63h-8.406l-6,11.759-6-11.759H491l10.208,19.991.36.706v8.125h7.686V83.7l.36-.706Z" transform="translate(-373.069 -47.868)" fill="#181939"/></svg>